<?xml version="1.0" standalone="no"?>
<!DOCTYPE svg PUBLIC "-//W3C//DTD SVG 20010904//EN"
 "http://www.w3.org/TR/2001/REC-SVG-20010904/DTD/svg10.dtd">
<svg version="1.0" xmlns="http://www.w3.org/2000/svg"
 width="272.000000pt" height="272.000000pt" viewBox="0 0 272.000000 272.000000"
 preserveAspectRatio="xMidYMid meet">

<g transform="translate(0.000000,272.000000) scale(0.100000,-0.100000)"
fill="#000000" stroke="none">
<path d="M1160 2695 c-306 -49 -571 -189 -784 -416 -167 -177 -285 -405 -338
-652 -28 -134 -31 -379 -5 -509 36 -180 113 -364 219 -523 68 -103 240 -275
343 -343 159 -106 343 -183 523 -219 130 -26 375 -23 509 5 354 76 659 282
857 580 267 400 299 906 86 1337 -133 269 -346 482 -615 615 -245 121 -532
166 -795 125z m376 -126 c388 -54 744 -314 922 -675 77 -155 111 -290 119
-474 9 -216 -24 -389 -108 -569 -195 -417 -599 -688 -1054 -707 -764 -33
-1374 642 -1261 1396 78 516 490 939 997 1024 103 17 281 20 385 5z"/>
<path d="M1306 2504 c-13 -12 -16 -41 -16 -149 0 -126 1 -135 22 -149 15 -11
26 -12 40 -5 16 9 18 24 18 152 0 142 -5 167 -36 167 -7 0 -20 -7 -28 -16z"/>
<path d="M762 2338 c-15 -15 -15 -51 0 -66 7 -7 25 -12 40 -12 36 0 56 36 39
69 -13 23 -59 29 -79 9z"/>
<path d="M1832 2338 c-7 -7 -12 -21 -12 -33 0 -29 19 -45 52 -45 36 0 56 36
39 69 -13 23 -59 29 -79 9z"/>
<path d="M1128 2189 c-26 -15 -23 -41 26 -179 25 -69 86 -244 136 -390 l90
-265 -306 -302 c-320 -316 -334 -333 -276 -354 22 -8 53 20 330 290 169 164
316 309 327 321 l20 22 -74 217 c-183 536 -215 623 -228 637 -17 16 -22 17
-45 3z"/>
<path d="M428 1929 c-25 -14 -23 -65 2 -79 47 -25 94 22 65 66 -16 25 -39 30
-67 13z"/>
<path d="M2226 1924 c-31 -30 -9 -84 34 -84 11 0 27 11 36 25 15 23 15 27 0
50 -19 29 -47 32 -70 9z"/>
<path d="M198 1450 c-21 -13 -24 -50 -6 -68 8 -8 55 -12 144 -12 107 0 136 3
148 16 20 20 20 38 0 55 -21 17 -261 25 -286 9z"/>
<path d="M2243 1453 c-51 -3 -65 -8 -74 -24 -8 -16 -7 -25 7 -40 16 -18 30
-19 152 -17 126 3 136 4 149 25 13 19 12 24 -6 42 -22 22 -52 24 -228 14z"/>
<path d="M424 859 c-17 -19 -17 -23 -3 -47 18 -33 44 -39 70 -16 23 21 24 47
3 68 -21 22 -47 20 -70 -5z"/>
<path d="M2226 858 c-9 -12 -16 -26 -16 -30 0 -13 39 -48 54 -48 41 0 62 71
27 90 -30 16 -48 12 -65 -12z"/>
<path d="M1306 514 c-13 -12 -16 -41 -16 -148 0 -144 6 -161 52 -154 23 3 23
5 26 147 3 144 -3 171 -34 171 -7 0 -20 -7 -28 -16z"/>
<path d="M770 450 c-11 -11 -20 -23 -20 -28 0 -18 33 -52 50 -52 24 0 50 26
50 50 0 22 -26 50 -46 50 -8 0 -23 -9 -34 -20z"/>
<path d="M1840 450 c-11 -11 -20 -23 -20 -28 0 -18 33 -52 50 -52 24 0 50 26
50 50 0 22 -26 50 -46 50 -8 0 -23 -9 -34 -20z"/>
</g>
</svg>
