<?xml version="1.0" standalone="no"?>
<!DOCTYPE svg PUBLIC "-//W3C//DTD SVG 20010904//EN"
 "http://www.w3.org/TR/2001/REC-SVG-20010904/DTD/svg10.dtd">
<svg version="1.0" xmlns="http://www.w3.org/2000/svg"
 width="156.000000pt" height="161.000000pt" viewBox="0 0 156.000000 161.000000"
 preserveAspectRatio="xMidYMid meet">

<g transform="translate(0.000000,161.000000) scale(0.100000,-0.100000)"
fill="#000000" stroke="none">
<path d="M705 1551 c6 -36 5 -39 -22 -45 -42 -10 -127 -70 -158 -110 -42 -55
-57 -118 -53 -226 2 -87 1 -99 -20 -124 -28 -36 -27 -57 1 -127 56 -135 198
-305 273 -327 99 -29 188 -7 257 64 40 41 160 224 183 281 18 43 18 88 -1 107
-11 11 -15 40 -15 119 0 127 -18 191 -72 252 -73 83 -251 175 -339 175 l-41 0
7 -39z m135 -377 c58 -14 140 -28 182 -31 73 -5 76 -7 69 -27 -5 -11 -11 -38
-15 -58 l-7 -38 36 0 c32 0 35 -3 35 -29 0 -17 -25 -70 -64 -135 -117 -195
-165 -236 -274 -236 -47 0 -67 5 -98 26 -51 35 -65 51 -143 169 -78 118 -96
156 -87 190 5 20 13 25 37 25 l30 0 -7 74 -7 75 34 9 c63 19 169 13 279 -14z"/>
<path d="M510 540 c-30 -15 -106 -40 -169 -55 -140 -33 -188 -53 -239 -100
-49 -43 -80 -106 -88 -178 -6 -47 -4 -56 19 -83 l25 -29 486 -3 486 -3 0 58
c1 105 72 234 171 310 38 29 46 39 32 41 -44 8 -150 44 -172 58 -19 13 -25 14
-32 3 -5 -8 -9 -17 -9 -21 0 -19 -79 -93 -115 -109 -59 -27 -144 -25 -204 5
-50 26 -105 80 -116 115 -8 25 -6 25 -75 -9z"/>
<path d="M1392 428 c-20 -20 -13 -31 52 -80 61 -44 65 -46 80 -29 25 27 20 37
-37 81 -57 42 -75 48 -95 28z"/>
<path d="M1275 268 c-41 -55 -75 -106 -75 -112 0 -6 -5 -42 -10 -80 -6 -38 -8
-71 -5 -74 3 -3 38 10 78 29 69 32 78 40 145 132 40 53 72 101 72 106 0 8
-114 101 -124 101 -4 0 -40 -46 -81 -102z m-1 -152 l39 -34 -48 -21 c-26 -12
-50 -20 -51 -18 -6 6 9 107 15 107 3 -1 24 -16 45 -34z"/>
</g>
</svg>
